Coordinates
version=1
nRows=32
nColumns=22
inDegrees=yes

Units are S.I. units (second, meters, Newtons, ...)
If the header above contains a line with 'inDegrees', this indicates whether rotational values are in degrees (yes) or radians (no).

endheader
time	pelvis_tilt	pelvis_list	pelvis_rotation	pelvis_tx	pelvis_ty	pelvis_tz	hip_flexion_r	hip_adduction_r	hip_rotation_r	knee_angle_r	ankle_angle_r	subtalar_angle_r	hip_flexion_l	hip_adduction_l	hip_rotation_l	knee_angle_l	ankle_angle_l	subtalar_angle_l	lumbar_extension	lumbar_bending	lumbar_rotation
      1.36000000	     -1.62328337	     -3.22127456	     -6.71460916	     -1.31038024	      1.02097677	     -0.41057879	      0.94380543	      7.01966529	     -5.48899835	     -9.73340066	     10.06697605	     -5.77967035	      1.91806185	     -3.41208717	     -1.61019890	    -10.88851943	     12.22262411	     -0.09273876	    -10.17214978	      2.78420198	      1.81175633
      1.37000000	     -1.59626055	     -3.22499001	     -6.66719388	     -1.30998269	      1.02087426	     -0.40988263	      0.94235431	      7.06267949	     -5.48871682	     -9.84557587	     10.16521631	     -5.81268435	      2.05518572	     -3.45707462	     -1.54635004	    -11.24690871	     12.37355280	     -0.03434196	    -10.26247136	      2.79006542	      1.85091590
      1.38000000	     -1.56816915	     -3.23601461	     -6.61555823	     -1.30956584	      1.02074983	     -0.40917353	      0.93640448	      7.11538041	     -5.48389269	     -9.95602284	     10.26554276	     -5.85287569	      2.22192243	     -3.51015628	     -1.47517738	    -11.66412572	     12.54655946	      0.02899122	    -10.35695215	      2.80538541	      1.89121832
      1.39000000	     -1.61278603	     -3.25874655	     -6.55450949	     -1.30916604	      1.02049188	     -0.40846411	      1.01617390	      7.19029730	     -5.49845671	    -10.07950242	     10.32817019	     -5.94045876	      2.51409464	     -3.58435667	     -1.36788790	    -12.16592321	     12.75268076	      0.20194056	    -10.36809311	      2.84738558	      1.94175984
      1.40000000	     -1.56886793	     -3.29065767	     -6.50258782	     -1.30871623	      1.02033933	     -0.40771456	      0.97560776	      7.26707288	     -5.49520274	    -10.16412069	     10.44469768	     -5.99007016	      2.72880191	     -3.65878316	     -1.28988193	    -12.70784837	     12.97165382	      0.25812893	    -10.48782578	      2.88506640	      2.00337041
      1.41000000	     -1.57664687	     -3.33372663	     -6.43644747	     -1.30832609	      1.02008328	     -0.40695318	      0.99831211	      7.36492302	     -5.48249371	    -10.25895631	     10.52239449	     -6.06958304	      3.05793475	     -3.75302579	     -1.18823375	    -13.34741180	     13.19426392	      0.39376829	    -10.55944357	      2.94180798	      2.03360327
      1.42000000	     -1.51422649	     -3.40240123	     -6.37978659	     -1.30788026	      1.01990448	     -0.40615830	      0.92333891	      7.48182220	     -5.48360937	    -10.32278354	     10.62980566	     -6.10991875	      3.32589412	     -3.86642131	     -1.09143173	    -14.02671438	     13.45310901	      0.44274164	    -10.71914177	      3.01778342	      2.10715087
      1.43000000	     -1.50463667	     -3.49109605	     -6.30979879	     -1.30750052	      1.01961690	     -0.40537456	      0.91453404	      7.62647327	     -5.47764321	    -10.40102140	     10.68130701	     -6.16621812	      3.71259790	     -4.00618653	     -0.95863681	    -14.81219181	     13.72133878	      0.57796155	    -10.83356061	      3.12934497	      2.14505058
      1.44000000	     -1.46509203	     -3.59476691	     -6.24180992	     -1.30709393	      1.01934169	     -0.40454487	      0.85176085	      7.78636735	     -5.48449382	    -10.44325405	     10.76857561	     -6.20711044	      4.09765207	     -4.16079224	     -0.83300348	    -15.65889476	     13.99362828	      0.69245732	    -10.99026118	      3.24529132	      2.20766415
      1.45000000	     -1.44425249	     -3.71105536	     -6.16446020	     -1.30668396	      1.01900366	     -0.40373701	      0.79816019	      7.96002511	     -5.49739411	    -10.46579584	     10.85291881	     -6.24443100	      4.54918405	     -4.32870918	     -0.69631947	    -16.59057772	     14.24920760	      0.86424030	    -11.12948291	      3.38570144	      2.25962978
      1.46000000	     -1.35474939	     -3.86211902	     -6.09632182	     -1.30622404	      1.01873868	     -0.40289909	      0.64966405	      8.16385063	     -5.51785503	    -10.46345033	     10.95693326	     -6.26429618	      4.93382357	     -4.52465076	     -0.55426573	    -17.55084268	     14.54020729	      0.94270254	    -11.35953416	      3.55297831	      2.35283757
      1.47000000	     -1.33643795	     -4.02239203	     -6.01403064	     -1.30581762	      1.01833968	     -0.40208201	      0.58153519	      8.38547401	     -5.53378816	    -10.46187145	     10.99713192	     -6.28036042	      5.45154757	     -4.73471501	     -0.37667441	    -18.60744555	     14.79780637	      1.18502882	    -11.51783219	      3.74447827	      2.40168109
      1.48000000	     -1.23175122	     -4.20482852	     -5.95985177	     -1.30532306	      1.01804852	     -0.40122145	      0.39043202	      8.62094232	     -5.55004714	    -10.42187446	     11.09485251	     -6.29278834	      5.86248890	     -4.95760294	     -0.22061976	    -19.66288277	     15.06244472	      1.27693977	    -11.78266142	      3.94348103	      2.52132068
      1.49000000	     -1.16682669	     -4.39630167	     -5.90031896	     -1.30486071	      1.01768296	     -0.40037234	      0.24610795	      8.87113272	     -5.54816817	    -10.38716739	     11.10784059	     -6.29495808	      6.35498374	     -5.18935892	     -0.03788680	    -20.78904520	     15.30004119	      1.48418393	    -12.01152633	      4.16106314	      2.60866995
      1.50000000	     -1.10781045	     -4.58373215	     -5.85308204	     -1.30432213	      1.01729569	     -0.39951139	      0.08586247	      9.11715293	     -5.55626561	    -10.32014664	     11.17922152	     -6.29839072	      6.86738948	     -5.41713664	      0.10872697	    -21.94967327	     15.46154115	      1.73635878	    -12.22481309	      4.37200360	      2.72453778
      1.51000000	     -0.98570749	     -4.78252805	     -5.82215442	     -1.30371894	      1.01700009	     -0.39863619	     -0.15740137	      9.36754565	     -5.56256538	    -10.23672225	     11.26489379	     -6.30430835	      7.30429617	     -5.64526756	      0.25222307	    -23.11317889	     15.61190441	      1.81845217	    -12.51588788	      4.58408064	      2.88729644
      1.52000000	     -0.93246746	     -4.96853967	     -5.78109135	     -1.30314289	      1.01660788	     -0.39777918	     -0.31758137	      9.61193899	     -5.56187493	    -10.16355061	     11.28865492	     -6.29609660	      7.86318425	     -5.86331307	      0.40238067	    -24.35073558	     15.69000834	      2.07322652	    -12.72952405	      4.79151101	      2.99989141
      1.53000000	     -0.82027608	     -5.15653727	     -5.74711457	     -1.30247376	      1.01632110	     -0.39693255	     -0.55855906	      9.85052769	     -5.56350058	    -10.07121700	     11.33115987	     -6.29328395	      8.35671634	     -6.07115247	      0.54570710	    -25.59483816	     15.73606382	      2.16510824	    -13.00838466	      4.99237014	      3.14334664
      1.54000000	     -0.74049277	     -5.32516646	     -5.70441051	     -1.30175325	      1.01601226	     -0.39609578	     -0.77046290	     10.07263768	     -5.57904339	     -9.96888304	     11.36975876	     -6.28242791	      8.91601924	     -6.25800639	      0.68837282	    -26.88520678	     15.70231213	      2.30070220	    -13.24118048	      5.17258648	      3.27078808
      1.55000000	     -0.66924075	     -5.47507289	     -5.65539198	     -1.30095642	      1.01572444	     -0.39527739	     -0.97855815	     10.27492898	     -5.60408590	     -9.86156103	     11.41228356	     -6.26637946	      9.50690774	     -6.42076620	      0.83073620	    -28.20851467	     15.60763080	      2.43801433	    -13.45408973	      5.33073001	      3.39509729
      1.56000000	     -0.62037722	     -5.60212774	     -5.59675647	     -1.30008163	      1.01544028	     -0.39449786	     -1.16551581	     10.45330312	     -5.64157518	     -9.75091901	     11.44955685	     -6.24144551	     10.14894995	     -6.55438012	      0.97557663	    -29.56878361	     15.46517446	      2.59970630	    -13.62952226	      5.46893304	      3.50783071
      1.57000000	     -0.58988133	     -5.70818072	     -5.53201442	     -1.29912525	      1.01516577	     -0.39372737	     -1.33422631	     10.61170268	     -5.68876755	     -9.64125818	     11.50060155	     -6.21028552	     10.83291002	     -6.66152869	      1.12463134	    -30.95627287	     15.27000529	      2.78519940	    -13.77352016	      5.57948508	      3.62092746
      1.58000000	     -0.51976870	     -5.81063593	     -5.46492012	     -1.29808642	      1.01500190	     -0.39294860	     -1.55969309	     10.76455452	     -5.72153279	     -9.51129267	     11.51732537	     -6.18244418	     11.48142992	     -6.75465171	      1.28516458	    -32.34761736	     15.05498408	      2.90045341	    -13.96519053	      5.67060082	      3.74905320
      1.59000000	     -0.56837345	     -5.86111734	     -5.39138788	     -1.29698291	      1.01466327	     -0.39223192	     -1.62987835	     10.86797906	     -5.78213179	     -9.42943626	     11.58226356	     -6.13293288	     12.30245747	     -6.79629078	      1.42820678	    -33.78720070	     14.82981144	      3.18390860	    -14.00057376	      5.72603671	      3.82535856
      1.60000000	     -0.55864963	     -5.91905675	     -5.31608529	     -1.29575810	      1.01445948	     -0.39150573	     -1.79369917	     10.97734452	     -5.82748808	     -9.29975963	     11.59147920	     -6.09367043	     13.05173011	     -6.83204095	      1.57996426	    -35.19357670	     14.63044810	      3.35317979	    -14.10326503	      5.77081329	      3.92510586
      1.61000000	     -0.61651884	     -5.93668529	     -5.25350248	     -1.29448816	      1.01417253	     -0.39084733	     -1.85165806	     11.04154599	     -5.86565694	     -9.23433594	     11.66062887	     -6.05085479	     13.88586418	     -6.80954646	      1.74698486	    -36.58052235	     14.44847821	      3.59631982	    -14.12315789	      5.78594732	      4.03003687
      1.62000000	     -0.66193388	     -5.93828084	     -5.20061055	     -1.29313227	      1.01393641	     -0.39017893	     -1.92566249	     11.08777692	     -5.88712272	     -9.17074425	     11.72924784	     -6.01607172	     14.69539852	     -6.75453574	      1.92542165	    -37.90317828	     14.32103321	      3.79148911	    -14.15786139	      5.77083463	      4.15020480
      1.63000000	     -0.70667785	     -5.92884141	     -5.15368366	     -1.29168184	      1.01373092	     -0.38956729	     -2.00503441	     11.11727859	     -5.91247741	     -9.10427613	     11.77134312	     -5.98371088	     15.49035871	     -6.66452929	      2.12130713	    -39.14423665	     14.29350836	      3.91848063	    -14.19363061	      5.75005835	      4.27464962
      1.64000000	     -0.76054974	     -5.88951203	     -5.12469729	     -1.29015663	      1.01353584	     -0.38897197	     -2.06057344	     11.11212970	     -5.92010715	     -9.07181891	     11.85302340	     -5.95799419	     16.27596135	     -6.52409060	      2.32202649	    -40.28254279	     14.32906236	      4.00343180	    -14.21704890	      5.69460927	      4.40074559
      1.65000000	     -0.81279356	     -5.81967961	     -5.11524016	     -1.28854870	      1.01337431	     -0.38840774	     -2.11269392	     11.06936170	     -5.91172058	     -9.05520944	     11.94589618	     -5.93933010	     17.03246934	     -6.33168476	      2.52297792	    -41.29704314	     14.42557679	      4.03607455	    -14.24439452	      5.60745834	      4.53446371
      1.66000000	     -0.85386913	     -5.72889892	     -5.12108174	     -1.28684950	      1.01325761	     -0.38787309	     -2.17555274	     10.99935128	     -5.89210584	     -9.04922182	     12.04482923	     -5.92858675	     17.74758336	     -6.10222054	      2.71663327	    -42.17920644	     14.55902330	      4.02195477	    -14.28622126	      5.49734655	      4.67527059
      1.67000000	     -0.88670336	     -5.61924469	     -5.14445463	     -1.28507015	      1.01317400	     -0.38736509	     -2.24196148	     10.90459825	     -5.85563175	     -9.06069399	     12.14879414	     -5.92510349	     18.42523055	     -5.84389668	      2.89531873	    -42.92570384	     14.69628253	      3.98100393	    -14.34109766	      5.36738336	      4.82041135
